<svg xmlns="http://www.w3.org/2000/svg" xmlns:xlink="http://www.w3.org/1999/xlink" width="1080" zoomAndPan="magnify" viewBox="0 0 810 809.999993" height="1080" preserveAspectRatio="xMidYMid meet" version="1.0"><rect x="-81" width="972" fill="#ffffff" y="-80.999999" height="971.999992" fill-opacity="1"/><rect x="-81" width="972" fill="#ffffff" y="-80.999999" height="971.999992" fill-opacity="1"/><path fill="#019bff" d="M 270.8125 83.269531 C 236.339844 84.894531 212.796875 90.394531 192.214844 98.484375 C 170.917969 106.785156 152.863281 117.921875 134.902344 135.949219 C 116.9375 153.976562 105.875 172.042969 97.632812 193.375 C 89.65625 214.003906 84.253906 237.5625 82.730469 272.054688 C 81.207031 306.550781 80.871094 317.636719 81.039062 405.621094 C 81.207031 493.609375 81.597656 504.636719 83.269531 539.199219 C 84.914062 573.667969 90.394531 597.203125 98.484375 617.789062 C 106.796875 639.089844 117.921875 657.136719 135.957031 675.105469 C 153.992188 693.074219 172.042969 704.109375 193.429688 712.367188 C 214.035156 720.328125 237.601562 725.761719 272.089844 727.269531 C 306.574219 728.78125 317.675781 729.128906 405.636719 728.960938 C 493.59375 728.792969 504.667969 728.402344 539.226562 726.765625 C 573.785156 725.125 597.195312 719.605469 617.789062 711.554688 C 639.089844 703.222656 657.148438 692.117188 675.105469 674.074219 C 693.0625 656.035156 704.117188 637.957031 712.351562 616.609375 C 720.335938 596.003906 725.761719 572.4375 727.257812 537.976562 C 728.765625 503.390625 729.125 492.351562 728.953125 404.378906 C 728.785156 316.40625 728.390625 305.375 726.75 270.824219 C 725.113281 236.273438 719.625 212.808594 711.542969 192.210938 C 703.214844 170.910156 692.101562 152.875 674.074219 134.894531 C 656.046875 116.914062 637.957031 105.863281 616.617188 97.648438 C 595.996094 89.671875 572.441406 84.234375 537.957031 82.742188 C 503.46875 81.253906 492.371094 80.871094 404.378906 81.039062 C 316.386719 81.207031 305.371094 81.582031 270.8125 83.269531 M 274.597656 668.980469 C 243.007812 667.609375 225.855469 662.359375 214.421875 657.964844 C 199.285156 652.132812 188.503906 645.085938 177.113281 633.800781 C 165.71875 622.519531 158.722656 611.699219 152.8125 596.59375 C 148.371094 585.164062 143.027344 568.03125 141.550781 536.441406 C 139.941406 502.296875 139.605469 492.046875 139.417969 405.542969 C 139.230469 319.042969 139.558594 308.804688 141.058594 274.648438 C 142.40625 243.085938 147.6875 225.914062 152.074219 214.488281 C 157.90625 199.332031 164.929688 188.566406 176.238281 177.183594 C 187.542969 165.796875 198.332031 158.785156 213.453125 152.875 C 224.867188 148.417969 242.003906 143.117188 273.578125 141.613281 C 307.75 139.992188 317.988281 139.671875 404.476562 139.480469 C 490.964844 139.292969 501.226562 139.617188 535.410156 141.121094 C 566.972656 142.496094 584.152344 147.722656 595.5625 152.136719 C 610.707031 157.96875 621.484375 164.972656 632.871094 176.300781 C 644.253906 187.628906 651.273438 198.378906 657.183594 213.527344 C 661.648438 224.914062 666.949219 242.039062 668.4375 273.636719 C 670.0625 307.804688 670.433594 318.050781 670.589844 404.535156 C 670.746094 491.015625 670.441406 501.285156 668.945312 535.429688 C 667.5625 567.019531 662.328125 584.179688 657.925781 595.621094 C 652.09375 610.753906 645.066406 621.542969 633.75 632.921875 C 622.4375 644.300781 611.660156 651.3125 596.535156 657.222656 C 585.132812 661.671875 567.976562 666.988281 536.425781 668.488281 C 502.257812 670.097656 492.019531 670.433594 405.5 670.621094 C 318.976562 670.808594 308.773438 670.460938 274.601562 668.980469 M 538.726562 231.835938 C 538.730469 233.109375 538.792969 234.378906 538.921875 235.644531 C 539.046875 236.914062 539.238281 238.171875 539.488281 239.417969 C 539.738281 240.667969 540.050781 241.902344 540.421875 243.121094 C 540.792969 244.335938 541.222656 245.535156 541.710938 246.710938 C 542.203125 247.886719 542.746094 249.035156 543.351562 250.15625 C 543.953125 251.277344 544.609375 252.367188 545.316406 253.425781 C 546.027344 254.484375 546.785156 255.503906 547.59375 256.488281 C 548.40625 257.46875 549.261719 258.410156 550.164062 259.308594 C 551.066406 260.207031 552.007812 261.0625 552.996094 261.867188 C 553.980469 262.671875 555.003906 263.429688 556.0625 264.136719 C 557.125 264.839844 558.214844 265.492188 559.339844 266.089844 C 560.464844 266.691406 561.613281 267.230469 562.792969 267.714844 C 563.96875 268.203125 565.167969 268.628906 566.386719 268.996094 C 567.605469 269.363281 568.839844 269.671875 570.089844 269.917969 C 571.339844 270.164062 572.597656 270.347656 573.867188 270.46875 C 575.132812 270.59375 576.402344 270.652344 577.675781 270.648438 C 578.949219 270.648438 580.21875 270.582031 581.488281 270.457031 C 582.753906 270.328125 584.011719 270.140625 585.261719 269.890625 C 586.507812 269.640625 587.742188 269.328125 588.960938 268.957031 C 590.179688 268.582031 591.375 268.152344 592.550781 267.664062 C 593.726562 267.175781 594.875 266.628906 595.996094 266.027344 C 597.121094 265.421875 598.210938 264.769531 599.265625 264.058594 C 600.324219 263.347656 601.34375 262.589844 602.328125 261.78125 C 603.3125 260.96875 604.25 260.113281 605.152344 259.210938 C 606.050781 258.308594 606.902344 257.367188 607.707031 256.378906 C 608.515625 255.394531 609.269531 254.371094 609.976562 253.3125 C 610.679688 252.25 611.332031 251.160156 611.929688 250.035156 C 612.527344 248.910156 613.070312 247.757812 613.554688 246.582031 C 614.039062 245.40625 614.46875 244.207031 614.835938 242.988281 C 615.203125 241.765625 615.507812 240.53125 615.753906 239.285156 C 616 238.035156 616.183594 236.777344 616.308594 235.507812 C 616.429688 234.242188 616.488281 232.96875 616.488281 231.695312 C 616.484375 230.421875 616.421875 229.152344 616.292969 227.886719 C 616.167969 226.617188 615.976562 225.359375 615.726562 224.113281 C 615.476562 222.863281 615.164062 221.628906 614.792969 220.414062 C 614.421875 219.195312 613.988281 218 613.5 216.824219 C 613.011719 215.648438 612.464844 214.5 611.863281 213.375 C 611.257812 212.253906 610.601562 211.164062 609.894531 210.105469 C 609.183594 209.050781 608.425781 208.03125 607.613281 207.046875 C 606.804688 206.0625 605.949219 205.125 605.046875 204.222656 C 604.144531 203.324219 603.199219 202.472656 602.214844 201.667969 C 601.226562 200.863281 600.207031 200.105469 599.144531 199.398438 C 598.085938 198.695312 596.992188 198.042969 595.867188 197.445312 C 594.742188 196.847656 593.59375 196.304688 592.414062 195.820312 C 591.238281 195.335938 590.039062 194.910156 588.820312 194.542969 C 587.601562 194.175781 586.367188 193.867188 585.117188 193.621094 C 583.867188 193.375 582.609375 193.191406 581.339844 193.070312 C 580.074219 192.949219 578.804688 192.886719 577.53125 192.890625 C 576.257812 192.894531 574.988281 192.957031 573.71875 193.085938 C 572.453125 193.210938 571.195312 193.402344 569.949219 193.652344 C 568.699219 193.902344 567.46875 194.214844 566.25 194.585938 C 565.03125 194.957031 563.835938 195.390625 562.660156 195.878906 C 561.484375 196.367188 560.335938 196.914062 559.214844 197.515625 C 558.09375 198.117188 557.003906 198.773438 555.945312 199.484375 C 554.890625 200.191406 553.871094 200.953125 552.886719 201.761719 C 551.902344 202.570312 550.964844 203.425781 550.066406 204.328125 C 549.167969 205.230469 548.3125 206.175781 547.507812 207.160156 C 546.703125 208.144531 545.945312 209.167969 545.242188 210.226562 C 544.535156 211.289062 543.882812 212.378906 543.285156 213.503906 C 542.6875 214.625 542.144531 215.777344 541.660156 216.953125 C 541.175781 218.132812 540.75 219.328125 540.382812 220.546875 C 540.015625 221.765625 539.707031 223 539.460938 224.25 C 539.214844 225.5 539.03125 226.757812 538.910156 228.023438 C 538.785156 229.292969 538.726562 230.5625 538.726562 231.835938 M 238.640625 405.324219 C 238.820312 497.210938 313.445312 571.53125 405.3125 571.355469 C 497.179688 571.179688 571.550781 496.5625 571.375 404.675781 C 571.199219 312.789062 496.554688 238.449219 404.675781 238.632812 C 312.796875 238.8125 238.464844 313.449219 238.640625 405.324219 M 296.996094 405.207031 C 296.996094 403.441406 297.035156 401.671875 297.117188 399.90625 C 297.199219 398.140625 297.328125 396.378906 297.496094 394.621094 C 297.667969 392.859375 297.878906 391.105469 298.136719 389.359375 C 298.390625 387.609375 298.691406 385.867188 299.03125 384.132812 C 299.371094 382.398438 299.757812 380.675781 300.183594 378.957031 C 300.609375 377.242188 301.078125 375.539062 301.585938 373.847656 C 302.097656 372.15625 302.648438 370.476562 303.238281 368.808594 C 303.832031 367.144531 304.464844 365.496094 305.136719 363.859375 C 305.808594 362.226562 306.523438 360.609375 307.277344 359.011719 C 308.027344 357.410156 308.820312 355.832031 309.648438 354.269531 C 310.480469 352.710938 311.347656 351.171875 312.253906 349.652344 C 313.160156 348.136719 314.101562 346.640625 315.082031 345.167969 C 316.058594 343.695312 317.074219 342.25 318.125 340.828125 C 319.175781 339.40625 320.257812 338.011719 321.378906 336.644531 C 322.496094 335.273438 323.648438 333.933594 324.832031 332.621094 C 326.015625 331.308594 327.230469 330.027344 328.480469 328.777344 C 329.726562 327.523438 331.003906 326.300781 332.3125 325.113281 C 333.617188 323.921875 334.953125 322.765625 336.320312 321.644531 C 337.683594 320.519531 339.074219 319.429688 340.492188 318.375 C 341.910156 317.316406 343.351562 316.296875 344.820312 315.3125 C 346.289062 314.328125 347.777344 313.378906 349.292969 312.46875 C 350.804688 311.554688 352.34375 310.679688 353.898438 309.84375 C 355.457031 309.007812 357.035156 308.210938 358.628906 307.453125 C 360.226562 306.695312 361.839844 305.972656 363.472656 305.292969 C 365.101562 304.613281 366.75 303.976562 368.414062 303.378906 C 370.078125 302.777344 371.753906 302.222656 373.445312 301.703125 C 375.132812 301.1875 376.835938 300.714844 378.550781 300.28125 C 380.265625 299.847656 381.988281 299.457031 383.71875 299.109375 C 385.453125 298.761719 387.191406 298.453125 388.941406 298.191406 C 390.6875 297.929688 392.441406 297.710938 394.199219 297.53125 C 395.960938 297.355469 397.722656 297.222656 399.488281 297.132812 C 401.253906 297.042969 403.019531 296.996094 404.785156 296.992188 C 406.554688 296.988281 408.320312 297.027344 410.085938 297.113281 C 411.851562 297.195312 413.613281 297.320312 415.375 297.492188 C 417.132812 297.660156 418.886719 297.875 420.636719 298.128906 C 422.382812 298.386719 424.125 298.683594 425.859375 299.023438 C 427.59375 299.367188 429.320312 299.75 431.035156 300.175781 C 432.75 300.601562 434.453125 301.070312 436.148438 301.582031 C 437.839844 302.089844 439.519531 302.640625 441.183594 303.234375 C 442.847656 303.824219 444.5 304.457031 446.132812 305.132812 C 447.765625 305.804688 449.382812 306.515625 450.984375 307.269531 C 452.582031 308.023438 454.164062 308.8125 455.722656 309.644531 C 457.285156 310.472656 458.824219 311.339844 460.339844 312.246094 C 461.859375 313.152344 463.351562 314.09375 464.824219 315.074219 C 466.296875 316.054688 467.742188 317.066406 469.164062 318.117188 C 470.585938 319.167969 471.980469 320.253906 473.351562 321.371094 C 474.71875 322.488281 476.058594 323.640625 477.371094 324.824219 C 478.683594 326.011719 479.964844 327.226562 481.21875 328.472656 C 482.46875 329.722656 483.691406 331 484.878906 332.304688 C 486.070312 333.613281 487.226562 334.949219 488.351562 336.3125 C 489.476562 337.675781 490.566406 339.066406 491.621094 340.484375 C 492.675781 341.902344 493.695312 343.34375 494.679688 344.8125 C 495.667969 346.28125 496.613281 347.773438 497.527344 349.285156 C 498.4375 350.800781 499.3125 352.335938 500.148438 353.894531 C 500.984375 355.449219 501.78125 357.027344 502.539062 358.625 C 503.300781 360.21875 504.019531 361.832031 504.699219 363.464844 C 505.378906 365.097656 506.015625 366.746094 506.617188 368.40625 C 507.214844 370.070312 507.773438 371.746094 508.289062 373.4375 C 508.804688 375.128906 509.28125 376.832031 509.714844 378.542969 C 510.144531 380.257812 510.535156 381.980469 510.882812 383.714844 C 511.234375 385.445312 511.539062 387.1875 511.800781 388.933594 C 512.0625 390.683594 512.285156 392.4375 512.460938 394.195312 C 512.636719 395.953125 512.769531 397.714844 512.859375 399.480469 C 512.953125 401.246094 513 403.011719 513 404.78125 C 513.003906 406.546875 512.964844 408.3125 512.882812 410.078125 C 512.800781 411.84375 512.671875 413.609375 512.503906 415.367188 C 512.332031 417.125 512.121094 418.878906 511.863281 420.628906 C 511.609375 422.378906 511.308594 424.121094 510.96875 425.855469 C 510.625 427.589844 510.242188 429.3125 509.816406 431.027344 C 509.390625 432.742188 508.921875 434.449219 508.414062 436.140625 C 507.902344 437.832031 507.351562 439.511719 506.761719 441.175781 C 506.167969 442.84375 505.535156 444.492188 504.863281 446.125 C 504.1875 447.761719 503.476562 449.378906 502.722656 450.976562 C 501.972656 452.578125 501.179688 454.15625 500.351562 455.714844 C 499.519531 457.277344 498.652344 458.816406 497.746094 460.335938 C 496.839844 461.851562 495.898438 463.347656 494.917969 464.820312 C 493.941406 466.289062 492.925781 467.738281 491.875 469.160156 C 490.824219 470.582031 489.742188 471.976562 488.621094 473.34375 C 487.503906 474.710938 486.351562 476.054688 485.167969 477.363281 C 483.984375 478.675781 482.765625 479.960938 481.519531 481.210938 C 480.273438 482.464844 478.996094 483.683594 477.6875 484.875 C 476.378906 486.0625 475.046875 487.21875 473.679688 488.34375 C 472.316406 489.46875 470.925781 490.558594 469.507812 491.613281 C 468.089844 492.671875 466.648438 493.691406 465.179688 494.675781 C 463.710938 495.660156 462.222656 496.609375 460.707031 497.519531 C 459.191406 498.433594 457.65625 499.304688 456.101562 500.140625 C 454.542969 500.976562 452.964844 501.777344 451.371094 502.535156 C 449.773438 503.292969 448.160156 504.011719 446.527344 504.691406 C 444.894531 505.371094 443.25 506.011719 441.585938 506.609375 C 439.921875 507.207031 438.246094 507.765625 436.554688 508.28125 C 434.867188 508.800781 433.164062 509.273438 431.449219 509.707031 C 429.734375 510.140625 428.011719 510.53125 426.28125 510.878906 C 424.546875 511.226562 422.804688 511.53125 421.058594 511.796875 C 419.3125 512.058594 417.558594 512.277344 415.800781 512.453125 C 414.039062 512.632812 412.277344 512.765625 410.511719 512.855469 C 408.746094 512.945312 406.980469 512.992188 405.214844 512.996094 C 403.445312 513 401.679688 512.960938 399.914062 512.875 C 398.148438 512.792969 396.386719 512.667969 394.625 512.496094 C 392.867188 512.328125 391.113281 512.117188 389.363281 511.859375 C 387.613281 511.605469 385.871094 511.304688 384.136719 510.964844 C 382.402344 510.625 380.679688 510.238281 378.964844 509.8125 C 377.25 509.386719 375.542969 508.917969 373.851562 508.410156 C 372.160156 507.902344 370.480469 507.351562 368.816406 506.757812 C 367.148438 506.164062 365.5 505.53125 363.863281 504.859375 C 362.230469 504.1875 360.613281 503.472656 359.015625 502.722656 C 357.414062 501.96875 355.835938 501.175781 354.273438 500.347656 C 352.714844 499.515625 351.175781 498.648438 349.65625 497.742188 C 348.136719 496.839844 346.644531 495.894531 345.171875 494.917969 C 343.699219 493.9375 342.253906 492.921875 340.832031 491.875 C 339.410156 490.824219 338.015625 489.738281 336.644531 488.621094 C 335.277344 487.5 333.9375 486.351562 332.625 485.164062 C 331.3125 483.980469 330.03125 482.765625 328.777344 481.519531 C 327.527344 480.269531 326.304688 478.992188 325.117188 477.683594 C 323.925781 476.378906 322.769531 475.042969 321.644531 473.679688 C 320.519531 472.3125 319.429688 470.921875 318.375 469.503906 C 317.320312 468.085938 316.300781 466.644531 315.3125 465.175781 C 314.328125 463.710938 313.382812 462.21875 312.46875 460.703125 C 311.558594 459.191406 310.683594 457.652344 309.847656 456.097656 C 309.011719 454.539062 308.214844 452.960938 307.453125 451.367188 C 306.695312 449.769531 305.976562 448.15625 305.296875 446.523438 C 304.617188 444.890625 303.980469 443.246094 303.378906 441.582031 C 302.78125 439.917969 302.222656 438.242188 301.707031 436.550781 C 301.191406 434.859375 300.714844 433.160156 300.285156 431.445312 C 299.851562 429.730469 299.460938 428.007812 299.113281 426.273438 C 298.765625 424.542969 298.460938 422.800781 298.195312 421.054688 C 297.933594 419.304688 297.714844 417.550781 297.539062 415.792969 C 297.359375 414.035156 297.226562 412.273438 297.136719 410.507812 C 297.046875 408.742188 297 406.976562 296.996094 405.207031 " fill-opacity="1" fill-rule="nonzero"/></svg>