<?xml version="1.0" encoding="UTF-8"?>
<svg id="Capa_2" data-name="Capa 2" xmlns="http://www.w3.org/2000/svg" viewBox="0 0 984.29 418.32">
  <defs>
    <style>
      .cls-1 {
        stroke-miterlimit: 10;
      }

      .cls-1, .cls-2 {
        fill: #0093ed;
        stroke: #7dd8ff;
        stroke-width: 10px;
      }

      .cls-3 {
        fill: #fff;
      }

      .cls-2 {
        stroke-miterlimit: 5;
      }
    </style>
  </defs>
  <g id="Capa_1-2" data-name="Capa 1">
    <circle class="cls-3" cx="775.12" cy="209.16" r="209.16"/>
    <path class="cls-1" d="M174.13,261.75c-3.67,5.16-8.68,8.06-15.09,8.76-6.41.78-11.89-2.03-16.35-8.37-11.65-18.53-21.97-37.85-30.81-57.87-5.01,12.98-10.09,25.89-15.09,38.87-3.36,7.66-8.45,11.89-15.09,12.75-6.73.78-12.75-2.03-17.99-8.45-7.35-9.85-14.86-19.63-22.37-29.33.31,17.52,1.17,35.04,2.66,52.63.31,1.17.47,2.5.55,3.91.08,1.49.16,2.97.23,4.38.08.78.08,1.49.16,2.27,0,5.08-1.8,9.31-5.47,12.83-3.67,3.52-7.9,5.24-12.67,5.24-5.24,0-9.46-1.72-12.59-5.24-3.13-3.52-4.93-7.82-5.47-12.83-3.67-37.69-4.61-75.47-2.89-113.24.39-5.01,2.03-8.92,4.85-11.81,2.89-2.82,6.33-4.61,10.32-5.32,6.65-1.64,12.28-.08,16.81,4.69,12.28,15.33,24.4,30.73,36.37,46.3l20.33-52.24c3.91-8.29,9.78-12.59,17.67-12.9,7.82-.23,13.61,4.07,17.21,12.9,10.95,33.24,25.81,64.6,44.5,94.16,3.75,6.88,3.83,12.82.23,17.91Z"/>
    <path class="cls-2" d="M251.32,166.11c-.55,2.11-1.09,4.22-1.56,6.34-.55,2.11-1.09,4.22-1.56,6.33,3.67.7,7.35,1.41,11.1,2.11,3.68.7,7.35,1.49,11.1,2.19,4.85,1.17,8.52,3.99,10.87,8.45,2.27,4.46,2.89,9.07,1.72,13.76-1.49,5.08-4.38,8.68-8.52,10.79-4.14,2.11-8.76,2.74-13.69,1.88-3.6-.7-7.12-1.41-10.64-2.03-3.52-.7-7.12-1.41-10.64-2.03-2.11,8.68-4.3,17.44-6.49,26.2,8.76,1.17,17.36,2.66,25.96,4.46,7.51,2.11,11.73,6.18,12.75,12.36.94,6.1-.63,11.73-4.69,16.74-4.07,5.08-9.93,7.04-17.67,5.79-12.83-2.74-25.73-4.54-38.87-5.4-6.1-.55-10.79-2.97-14.23-7.27s-4.46-9.46-3.21-15.64c4.3-17.28,8.52-34.57,12.83-51.85,4.22-17.36,8.52-34.64,12.82-51.93-.39-5.01.86-9.38,3.75-13.22s7.43-5.71,13.61-5.63c17.05.7,33.71,3.44,50.05,8.37,7.27,2.66,11.42,7.19,12.36,13.53.94,6.33-.63,11.96-4.61,16.81-3.99,4.85-9.78,6.33-17.36,4.54-8.37-2.58-16.74-4.46-25.18-5.63Z"/>
    <path class="cls-1" d="M440.44,264.72c-.55,7.98-4.38,13.45-11.34,16.58-6.96,3.13-13.53,1.88-19.47-3.75-18.46-20.96-38.24-40.43-59.36-58.5,4.54,22.21,10.17,44.19,16.97,65.93,1.96,7.51.47,13.29-4.38,17.28-4.85,4.07-10.4,5.55-16.81,4.61-6.33-.94-10.95-5.01-13.69-12.28-11.34-36.36-19.63-73.43-24.71-111.21-.7-5.01-.08-9.54,1.96-13.69,1.96-4.14,5.55-6.96,10.71-8.52.63-.16,1.25-.31,1.96-.39,3.91-1.02,8.06-.16,12.51,2.42,25.26,16.19,48.33,34.88,69.37,56.15-.08-5.4-.08-10.79-.08-16.19-.08-12.67-.08-25.34-.16-38.01.39-7.74,3.52-12.9,9.31-15.48,5.79-2.58,11.57-2.58,17.44,0,5.79,2.58,8.91,7.74,9.46,15.48.16,33.24.23,66.39.31,99.55Z"/>
    <path class="cls-1" d="M567.18,155.24c2.58,5.71,2.58,11.5,0,17.36-2.58,5.94-7.74,9.31-15.48,10.01-7.35.31-14.62.63-21.97.94,2.58,32.3,4.69,64.6,6.33,96.97-.08,7.74-2.97,12.9-8.6,15.48-5.71,2.58-11.5,2.58-17.44,0-5.94-2.58-9.31-7.74-10.17-15.48-1.64-31.83-3.68-63.66-6.18-95.49-3.52.16-7.04.31-10.48.47-3.52.16-7.04.31-10.56.39-7.74-.08-12.9-2.97-15.48-8.68-2.58-5.71-2.58-11.5,0-17.44,2.58-5.94,7.74-9.23,15.48-10.01,24.4-1.02,48.8-2.03,73.2-3.05,1.96-.08,3.91-.16,5.87-.23,7.74.16,12.9,3.05,15.48,8.76Z"/>
    <path class="cls-1" d="M703.2,177.84c6.34,17.44,6.26,34.96-.23,52.55-6.65,16.74-17.2,30.58-31.91,41.45-14.62,10.87-31.36,13.61-50.21,8.29-18.85-7.27-31.52-20.02-37.93-38.32-6.49-18.3-7.82-36.83-4.07-55.76,3.83-16.81,12.51-29.64,26.04-38.48,13.53-8.84,28.7-12.67,45.59-11.57,6.73.63,11.89,3.52,15.41,8.76,18.53,4.54,30.97,15.56,37.3,33.08ZM671.14,207.32c.86-6.49.47-12.51-1.1-18.06-1.64-5.47-5.4-8.6-11.26-9.23-6.65-.63-11.42-3.28-14.23-7.98-6.96.08-13.29,1.8-19.08,5.01-5.71,3.13-9.46,8.37-11.18,15.56-1.64,7.82-1.8,17.05-.47,27.84,1.33,10.71,5.63,18.46,12.9,23.15,8.76,3.99,16.81,3.52,24.17-1.56,7.43-5.08,12.9-11.57,16.42-19.55,1.64-3.6,2.89-8.68,3.83-15.17Z"/>
    <path class="cls-1" d="M826.26,271.45c-.23,5.08-2.03,9.38-5.32,12.9-3.83,3.6-8.06,5.32-12.75,5.08-4.61-.23-8.91-1.88-12.82-5.08-11.34-9.31-22.91-18.3-34.72-26.98,0,6.41-.08,12.9-.16,19.32-.55,7.82-3.67,12.98-9.54,15.56-5.86,2.58-11.65,2.58-17.44,0-5.71-2.58-8.84-7.74-9.15-15.56.47-37.77.31-75.54-.39-113.24.23-7.82,3.28-12.98,8.99-15.56,5.71-2.58,11.57-2.58,17.36,0,7.82-2.5,15.87-3.91,24.32-4.14,8.37-.23,16.11,1.56,23.07,5.32,14.39,8.84,22.45,21.66,24.01,38.48,0,22.13-8.84,39.02-26.67,50.68,8.76,6.73,17.36,13.53,25.89,20.57,3.75,3.36,5.55,7.59,5.32,12.67ZM777.54,180.6c-5.24-.78-10.95-.16-17.13,1.95.16,10.95.23,21.82.31,32.69.16.08.31.08.55.16h.23c5.94-1.88,11.42-4.61,16.27-8.21,4.85-3.6,7.43-8.37,7.9-14.23-.16-7.43-2.89-11.57-8.13-12.36Z"/>
  </g>
</svg>